<svg id="Layer_1" data-name="Layer 1" xmlns="http://www.w3.org/2000/svg" viewBox="0 0 30 30"><defs><style>.cls-1{fill:#e41469;}</style></defs><title>icon-instagram</title><path class="cls-1" d="M404.9943,290.75862H386.59a5.80234,5.80234,0,0,0-5.7969,5.7969v18.4062a5.80234,5.80234,0,0,0,5.7969,5.7969h18.4043a5.804,5.804,0,0,0,5.7988-5.7969v-18.4062A5.804,5.804,0,0,0,404.9943,290.75862Zm1.6641,3.459.6621-.0039v5.084l-5.0664.0175-.0176-5.0839Zm-15.1465,8.4629a5.269,5.269,0,1,1-1,3.0781A5.27591,5.27591,0,0,1,391.5119,302.68052Zm16.3593,12.2812a2.879,2.879,0,0,1-2.8769,2.875H386.59a2.8774,2.8774,0,0,1-2.875-2.875v-12.2812h4.4785a8.20406,8.20406,0,1,0,15.1973,0h4.4804Z" transform="translate(-380.7931 -290.75862)"/></svg>