<svg id="Layer_1" data-name="Layer 1" xmlns="http://www.w3.org/2000/svg" viewBox="0 0 29.999 30"><defs><style>.cls-1{fill:#e41469;}</style></defs><title>icon-dribble</title><path class="cls-1" d="M409.6129,299.91982a15.067,15.067,0,0,0-3.2128-4.7666,15.01414,15.01414,0,0,0-13.628-4.0889,14.99318,14.99318,0,0,0-7.5859,4.0889,15.20837,15.20837,0,0,0-1.8301,2.2187,14.76974,14.76974,0,0,0-1.3818,2.5479,14.99453,14.99453,0,0,0-.877,2.8193,15.17229,15.17229,0,0,0,0,6.041,15.03765,15.03765,0,0,0,2.2588,5.3672,15.35829,15.35829,0,0,0,1.8301,2.2187,15.03506,15.03506,0,0,0,4.7685,3.2129,14.987,14.987,0,0,0,14.2266-1.3828,15.02756,15.02756,0,0,0,4.0479-4.0488,15.00718,15.00718,0,0,0,1.3837-14.2275Zm-13.8193-6.9708a12.76345,12.76345,0,0,1,8.4609,3.1963c-.0322.0498-1.8564,2.8272-6.6923,4.6387a64.94618,64.94618,0,0,0-4.7881-7.4736A12.81735,12.81735,0,0,1,395.7936,292.949Zm-3.0674.3721-.0029.002s-.0146.0039-.0391.0088C392.6979,293.328,392.7126,293.326,392.7262,293.32112Zm-2.3984.8516a77.20355,77.20355,0,0,1,4.7568,7.3808,47.38528,47.38528,0,0,1-11.8271,1.5655A12.82739,12.82739,0,0,1,390.3278,294.17272Zm-4.0615,20.1465a12.7645,12.7645,0,0,1-3.2823-8.5616c0-.1357.0049-.2705.0108-.4043a46.97614,46.97614,0,0,0,13.1504-1.8251c.3672.7187.7187,1.4482,1.039,2.1767-.1689.0479-.3369.0986-.5048.1533a20.26393,20.26393,0,0,0-10.418,8.4541Zm9.5273,4.25a12.74948,12.74948,0,0,1-7.8711-2.7159l-.001.004s-.1191-.0879-.288-.2237c.0937.0772.1933.1446.289.2197.0235-.0498,2.4893-5.3642,10.0508-7.998.0283-.0107.0566-.0195.085-.0273a53.245,53.245,0,0,1,2.7363,9.7265A12.76848,12.76848,0,0,1,395.7936,318.56922Zm7.1582-2.1856a55.4219,55.4219,0,0,0-2.4941-9.1504,18.58868,18.58868,0,0,1,7.9834.5586A12.82092,12.82092,0,0,1,402.9518,316.38362Zm-3.2744-11.1719c-.0908-.2197-.1816-.4394-.2764-.6621-.2666-.6259-.5537-1.248-.8515-1.8574a16.48214,16.48214,0,0,0,7.1377-5.0703,12.76049,12.76049,0,0,1,2.9111,8.0088A29.65455,29.65455,0,0,0,399.6774,305.21172Z" transform="translate(-380.7936 -290.75862)"/></svg>